<svg xmlns="http://www.w3.org/2000/svg" xmlns:xlink="http://www.w3.org/1999/xlink" version="1.1" class="marks" width="420" height="408" viewBox="0 0 420 408"><rect width="420" height="408" fill="white"/><g fill="none" stroke-miterlimit="10" transform="translate(40,28)"><g class="mark-group role-frame root" role="graphics-object" aria-roledescription="group mark container"><g transform="translate(0,0)"><path class="background" aria-hidden="true" d="M0,0h0v0h0Z"/><g><g class="mark-group role-scope concat_0_group" role="graphics-object" aria-roledescription="group mark container"><g transform="translate(0,0)"><path class="background" aria-hidden="true" d="M0.5,0.5h300v300h-300Z" stroke="#ddd"/><g><g class="mark-group role-axis" aria-hidden="true"><g transform="translate(0.5,300.5)"><path class="background" aria-hidden="true" d="M0,0h0v0h0Z" pointer-events="none"/><g><g class="mark-rule role-axis-grid" pointer-events="none"><line transform="translate(23,-300)" x2="0" y2="300" stroke="#ddd" stroke-width="1" opacity="1"/><line transform="translate(69,-300)" x2="0" y2="300" stroke="#ddd" stroke-width="1" opacity="1"/><line transform="translate(115,-300)" x2="0" y2="300" stroke="#ddd" stroke-width="1" opacity="1"/><line transform="translate(162,-300)" x2="0" y2="300" stroke="#ddd" stroke-width="1" opacity="1"/><line transform="translate(208,-300)" x2="0" y2="300" stroke="#ddd" stroke-width="1" opacity="1"/><line transform="translate(254,-300)" x2="0" y2="300" stroke="#ddd" stroke-width="1" opacity="1"/><line transform="translate(300,-300)" x2="0" y2="300" stroke="#ddd" stroke-width="1" opacity="1"/></g></g><path class="foreground" aria-hidden="true" d="" pointer-events="none" display="none"/></g></g><g class="mark-group role-axis" aria-hidden="true"><g transform="translate(0.5,0.5)"><path class="background" aria-hidden="true" d="M0,0h0v0h0Z" pointer-events="none"/><g><g class="mark-rule role-axis-grid" pointer-events="none"><line transform="translate(0,300)" x2="300" y2="0" stroke="#ddd" stroke-width="1" opacity="1"/><line transform="translate(0,250)" x2="300" y2="0" stroke="#ddd" stroke-width="1" opacity="1"/><line transform="translate(0,200)" x2="300" y2="0" stroke="#ddd" stroke-width="1" opacity="1"/><line transform="translate(0,150)" x2="300" y2="0" stroke="#ddd" stroke-width="1" opacity="1"/><line transform="translate(0,100)" x2="300" y2="0" stroke="#ddd" stroke-width="1" opacity="1"/><line transform="translate(0,50)" x2="300" y2="0" stroke="#ddd" stroke-width="1" opacity="1"/><line transform="translate(0,0)" x2="300" y2="0" stroke="#ddd" stroke-width="1" opacity="1"/></g></g><path class="foreground" aria-hidden="true" d="" pointer-events="none" display="none"/></g></g><g class="mark-group role-axis" role="graphics-symbol" aria-roledescription="axis" aria-label="X-axis titled 'Age' for a linear scale with values from 15 to 80"><g transform="translate(0.5,300.5)"><path class="background" aria-hidden="true" d="M0,0h0v0h0Z" pointer-events="none"/><g><g class="mark-rule role-axis-tick" pointer-events="none"><line transform="translate(23,0)" x2="0" y2="5" stroke="#888" stroke-width="1" opacity="1"/><line transform="translate(69,0)" x2="0" y2="5" stroke="#888" stroke-width="1" opacity="1"/><line transform="translate(115,0)" x2="0" y2="5" stroke="#888" stroke-width="1" opacity="1"/><line transform="translate(162,0)" x2="0" y2="5" stroke="#888" stroke-width="1" opacity="1"/><line transform="translate(208,0)" x2="0" y2="5" stroke="#888" stroke-width="1" opacity="1"/><line transform="translate(254,0)" x2="0" y2="5" stroke="#888" stroke-width="1" opacity="1"/><line transform="translate(300,0)" x2="0" y2="5" stroke="#888" stroke-width="1" opacity="1"/></g><g class="mark-text role-axis-label" pointer-events="none"><text text-anchor="middle" transform="translate(23.076923076923077,15)" font-family="sans-serif" font-size="10px" fill="#000" opacity="1">20</text><text text-anchor="middle" transform="translate(69.23076923076924,15)" font-family="sans-serif" font-size="10px" fill="#000" opacity="1">30</text><text text-anchor="middle" transform="translate(115.38461538461539,15)" font-family="sans-serif" font-size="10px" fill="#000" opacity="1">40</text><text text-anchor="middle" transform="translate(161.53846153846152,15)" font-family="sans-serif" font-size="10px" fill="#000" opacity="1">50</text><text text-anchor="middle" transform="translate(207.69230769230768,15)" font-family="sans-serif" font-size="10px" fill="#000" opacity="1">60</text><text text-anchor="middle" transform="translate(253.84615384615384,15)" font-family="sans-serif" font-size="10px" fill="#000" opacity="1">70</text><text text-anchor="end" transform="translate(300,15)" font-family="sans-serif" font-size="10px" fill="#000" opacity="1">80</text></g><g class="mark-rule role-axis-domain" pointer-events="none"><line transform="translate(0,0)" x2="300" y2="0" stroke="#888" stroke-width="1" opacity="1"/></g><g class="mark-text role-axis-title" pointer-events="none"><text text-anchor="middle" transform="translate(150,30)" font-family="sans-serif" font-size="11px" font-weight="bold" fill="#000" opacity="1">Age</text></g></g><path class="foreground" aria-hidden="true" d="" pointer-events="none" display="none"/></g></g><g class="mark-group role-axis" role="graphics-symbol" aria-roledescription="axis" aria-label="Y-axis titled 'Time Served' for a linear scale with values from 0 to 30"><g transform="translate(0.5,0.5)"><path class="background" aria-hidden="true" d="M0,0h0v0h0Z" pointer-events="none"/><g><g class="mark-rule role-axis-tick" pointer-events="none"><line transform="translate(0,300)" x2="-5" y2="0" stroke="#888" stroke-width="1" opacity="1"/><line transform="translate(0,250)" x2="-5" y2="0" stroke="#888" stroke-width="1" opacity="1"/><line transform="translate(0,200)" x2="-5" y2="0" stroke="#888" stroke-width="1" opacity="1"/><line transform="translate(0,150)" x2="-5" y2="0" stroke="#888" stroke-width="1" opacity="1"/><line transform="translate(0,100)" x2="-5" y2="0" stroke="#888" stroke-width="1" opacity="1"/><line transform="translate(0,50)" x2="-5" y2="0" stroke="#888" stroke-width="1" opacity="1"/><line transform="translate(0,0)" x2="-5" y2="0" stroke="#888" stroke-width="1" opacity="1"/></g><g class="mark-text role-axis-label" pointer-events="none"><text text-anchor="end" transform="translate(-7,303)" font-family="sans-serif" font-size="10px" fill="#000" opacity="1">0</text><text text-anchor="end" transform="translate(-7,253)" font-family="sans-serif" font-size="10px" fill="#000" opacity="1">5</text><text text-anchor="end" transform="translate(-7,203.00000000000003)" font-family="sans-serif" font-size="10px" fill="#000" opacity="1">10</text><text text-anchor="end" transform="translate(-7,153)" font-family="sans-serif" font-size="10px" fill="#000" opacity="1">15</text><text text-anchor="end" transform="translate(-7,103.00000000000001)" font-family="sans-serif" font-size="10px" fill="#000" opacity="1">20</text><text text-anchor="end" transform="translate(-7,52.999999999999986)" font-family="sans-serif" font-size="10px" fill="#000" opacity="1">25</text><text text-anchor="end" transform="translate(-7,3)" font-family="sans-serif" font-size="10px" fill="#000" opacity="1">30</text></g><g class="mark-rule role-axis-domain" pointer-events="none"><line transform="translate(0,300)" x2="0" y2="-300" stroke="#888" stroke-width="1" opacity="1"/></g><g class="mark-text role-axis-title" pointer-events="none"><text text-anchor="middle" transform="translate(-22.123046875,150) rotate(-90) translate(0,-2)" font-family="sans-serif" font-size="11px" font-weight="bold" fill="#000" opacity="1">Time Served</text></g></g><path class="foreground" aria-hidden="true" d="" pointer-events="none" display="none"/></g></g><g class="mark-group role-scope concat_0_pathgroup" role="graphics-object" aria-roledescription="group mark container"><g transform="translate(0,0)"><path class="background" aria-hidden="true" d="M0,0h300v300h-300Z"/><g><g class="mark-line role-mark concat_0_marks" role="graphics-object" aria-roledescription="line mark container"><path aria-label="Age: 17; Time Served: 0.315753424658; Race: W" role="graphics-symbol" aria-roledescription="line mark" d="M9.231,296.842L13.846,293.645L18.462,291.122L23.077,286.348L27.692,285.899L32.308,282.424L36.923,281.096L41.538,277.803L46.154,276.787L50.769,273.956L55.385,273.594L60,272.805L64.615,270.787L69.231,268.886L73.846,268.608L78.462,267.99L83.077,265.952L87.692,264.825L92.308,264.537L96.923,262.158L101.538,261.559L106.154,260.954L110.769,259.236L115.385,258.358L120,252.578L124.615,252.504L129.231,252.389L133.846,246.877L138.462,243.072L143.077,240.348L147.692,233.519L152.308,232.343L156.923,228.719L161.538,221.046L166.154,214.15L170.769,217.778L175.385,215.632L180,211.173L184.615,211.552L189.231,208.49L193.846,205.362L198.462,194.004L203.077,197.044L207.692,183.747L212.308,186.345L216.923,179.919L221.538,183.239L226.154,179.683L230.769,166.944L235.385,159.06L240,164.476L244.615,160.166L249.231,146.513L253.846,154.261L258.462,134.216L263.077,145.575L267.692,134.117L272.308,118.124L276.923,142.724L281.538,150.851L286.154,135.322L290.769,120.131L295.385,116.413" stroke="#ffa600" stroke-width="2"/></g></g><path class="foreground" aria-hidden="true" d="" display="none"/></g><g transform="translate(0,0)"><path class="background" aria-hidden="true" d="M0,0h300v300h-300Z"/><g><g class="mark-line role-mark concat_0_marks" role="graphics-object" aria-roledescription="line mark container"><path aria-label="Age: 17; Time Served: 0.186301369863; Race: B" role="graphics-symbol" aria-roledescription="line mark" d="M9.231,298.137L13.846,292.579L18.462,289.873L23.077,286.378L27.692,283.839L32.308,280.881L36.923,277.668L41.538,274.802L46.154,271.455L50.769,268.034L55.385,265.95L60,263.192L64.615,262.817L69.231,261.074L73.846,256.939L78.462,255.004L83.077,254.026L87.692,249.622L92.308,248.355L96.923,244.943L101.538,245.311L106.154,242.992L110.769,238.886L115.385,238.472L120,236.022L124.615,232.439L129.231,228.286L133.846,220.566L138.462,220.612L143.077,211.815L147.692,205.004L152.308,204.679L156.923,187.706L161.538,183.882L166.154,177.001L170.769,174.212L175.385,177.303L180,177.585L184.615,178.761L189.231,183.694L193.846,167.813L198.462,167.239L203.077,173.636L207.692,164.169L212.308,158.038L216.923,157.488L221.538,148.536L226.154,138.814L230.769,119.653L235.385,131.765L240,130.55L244.615,114.059L249.231,100.351L253.846,92.982L258.462,84.173L263.077,83.552L267.692,80.63L272.308,71.815L276.923,11.58L281.538,53.306L286.154,86.376L290.769,56.973L295.385,20.386" stroke="#665191" stroke-width="2"/></g></g><path class="foreground" aria-hidden="true" d="" display="none"/></g><g transform="translate(0,0)"><path class="background" aria-hidden="true" d="M0,0h300v300h-300Z"/><g><g class="mark-line role-mark concat_0_marks" role="graphics-object" aria-roledescription="line mark container"><path aria-label="Age: 17; Time Served: 0.246575342466; Race: H" role="graphics-symbol" aria-roledescription="line mark" d="M9.231,297.534L13.846,293.093L18.462,291.022L23.077,287.168L27.692,285.796L32.308,282.481L36.923,279.166L41.538,277.233L46.154,275.402L50.769,272.244L55.385,271.307L60,270.205L64.615,267.957L69.231,264.291L73.846,262.45L78.462,260.131L83.077,259.955L87.692,255.065L92.308,253.951L96.923,253.129L101.538,252.418L106.154,249.398L110.769,247.789L115.385,243.991L120,240.798L124.615,235.2L129.231,236.328L133.846,231.409L138.462,228.57L143.077,222.238L147.692,216.895L152.308,214.276L156.923,214.035L161.538,203.539L166.154,209.743L170.769,211.771L175.385,207.544L180,204.048L184.615,192.578L189.231,195.139L193.846,191.01L198.462,187.513L203.077,189.175L207.692,182.743L212.308,170.886L216.923,174.399L221.538,168.715L226.154,175.277L230.769,168.397L235.385,161.268L240,164.977L244.615,158.715L249.231,157.032L253.846,154.231L258.462,140.354L263.077,151.363L267.692,127.765L272.308,181.906L276.923,171.623L281.538,132.36L286.154,109.095L290.769,182.063L295.385,158.11" stroke="#bc5090" stroke-width="2"/></g></g><path class="foreground" aria-hidden="true" d="" display="none"/></g></g><g class="mark-group role-title"><g transform="translate(150,-22)"><path class="background" aria-hidden="true" d="M0,0h0v0h0Z" pointer-events="none"/><g><g class="mark-text role-title-text" role="graphics-symbol" aria-roledescription="title" aria-label="Title text 'Average Time Served and Age by Race'" pointer-events="none"><text text-anchor="middle" transform="translate(0,10)" font-family="sans-serif" font-size="13px" font-weight="bold" fill="#000" opacity="1">Average Time Served and Age by Race</text></g></g><path class="foreground" aria-hidden="true" d="" pointer-events="none" display="none"/></g></g></g><path class="foreground" aria-hidden="true" d="" display="none"/></g></g><g class="mark-group role-scope concat_1_group" role="graphics-object" aria-roledescription="group mark container"><g transform="translate(0,353)"><path class="background" aria-hidden="true" d="M0,0h20v20h-20Z"/><g><g class="mark-text role-mark concat_1_marks" role="graphics-object" aria-roledescription="text mark container"><text aria-label="text: Truncated people above 80, who are 200 of the 139,210 records.,Source: Texas Department of Criminal Justice" role="graphics-symbol" aria-roledescription="text mark" text-anchor="start" transform="translate(10,8)" font-family="sans-serif" font-size="10px" fill="black"><tspan>Truncated people above 80, who are 200 of the 139,210 records.</tspan><tspan x="0" dy="12">Source: Texas Department of Criminal Justice</tspan></text></g></g><path class="foreground" aria-hidden="true" d="" display="none"/></g></g><g class="mark-group role-legend" role="graphics-symbol" aria-roledescription="legend" aria-label="Symbol legend titled 'Race' for stroke color with 3 values: B, H, W"><g transform="translate(320,0)"><path class="background" aria-hidden="true" d="M0,0h55v53h-55Z" pointer-events="none"/><g><g class="mark-group role-legend-entry"><g transform="translate(0,16)"><path class="background" aria-hidden="true" d="M0,0h0v0h0Z" pointer-events="none"/><g><g class="mark-group role-scope" role="graphics-object" aria-roledescription="group mark container"><g transform="translate(0,0)"><path class="background" aria-hidden="true" d="M0,0h54.349609375v11h-54.349609375Z" pointer-events="none" opacity="1"/><g><g class="mark-symbol role-legend-symbol" pointer-events="none"><path transform="translate(6,6)" d="M-5,0L5,0" stroke="#665191" stroke-width="1.5" opacity="1"/></g><g class="mark-text role-legend-label" pointer-events="none"><text text-anchor="start" transform="translate(16,9)" font-family="sans-serif" font-size="10px" fill="#000" opacity="1">Black</text></g></g><path class="foreground" aria-hidden="true" d="" pointer-events="none" display="none"/></g><g transform="translate(0,13)"><path class="background" aria-hidden="true" d="M0,0h54.349609375v11h-54.349609375Z" pointer-events="none" opacity="1"/><g><g class="mark-symbol role-legend-symbol" pointer-events="none"><path transform="translate(6,6)" d="M-5,0L5,0" stroke="#bc5090" stroke-width="1.5" opacity="1"/></g><g class="mark-text role-legend-label" pointer-events="none"><text text-anchor="start" transform="translate(16,9)" font-family="sans-serif" font-size="10px" fill="#000" opacity="1">Hispanic</text></g></g><path class="foreground" aria-hidden="true" d="" pointer-events="none" display="none"/></g><g transform="translate(0,26)"><path class="background" aria-hidden="true" d="M0,0h54.349609375v11h-54.349609375Z" pointer-events="none" opacity="1"/><g><g class="mark-symbol role-legend-symbol" pointer-events="none"><path transform="translate(6,6)" d="M-5,0L5,0" stroke="#ffa600" stroke-width="1.5" opacity="1"/></g><g class="mark-text role-legend-label" pointer-events="none"><text text-anchor="start" transform="translate(16,9)" font-family="sans-serif" font-size="10px" fill="#000" opacity="1">White</text></g></g><path class="foreground" aria-hidden="true" d="" pointer-events="none" display="none"/></g></g></g><path class="foreground" aria-hidden="true" d="" pointer-events="none" display="none"/></g></g><g class="mark-text role-legend-title" pointer-events="none"><text text-anchor="start" transform="translate(0,9)" font-family="sans-serif" font-size="11px" font-weight="bold" fill="#000" opacity="1">Race</text></g></g><path class="foreground" aria-hidden="true" d="" pointer-events="none" display="none"/></g></g></g><path class="foreground" aria-hidden="true" d="" display="none"/></g></g></g></svg>